<svg width="454" height="521" viewBox="0 0 454 521" fill="none" xmlns="http://www.w3.org/2000/svg">
<circle cx="6.5" cy="6.5" r="6.5" fill="#A13DB5"/>
<path d="M124.236 258L122.329 230H125.129L125.724 240.535L126.459 255.48H127.841L128.611 240.535L129.889 230.175H134.964L136.241 240.535L137.011 255.48H138.394L139.164 240.535L139.794 230H142.559L140.616 258H134.946L134.019 248.812L133.109 232.607H131.779L130.851 248.812L129.906 258H124.236ZM146.616 258V230H149.399V242.67H154.561V230H157.344V258H154.561V245.172H149.399V258H146.616ZM161.097 258L164.107 230H169.83L172.822 258H169.987L169.27 250.09H164.65L163.95 258H161.097ZM164.895 247.587H169.042L168.5 241.655L167.73 232.502H166.225L165.437 241.672L164.895 247.587ZM178.031 258V232.502H173.761V230H185.049V232.502H180.796V258H178.031ZM195.764 258V230H201.766L203.429 241.462L204.531 255.375H205.494L206.579 241.462L208.259 230H214.226V258H211.409V249.25L211.759 232.502H210.271L208.469 249.967L207.104 257.877H202.834L201.556 249.967L199.736 232.502H198.266L198.616 249.25V258H195.764ZM218.003 258L221.013 230H226.736L229.728 258H226.893L226.176 250.09H221.556L220.856 258H218.003ZM221.801 247.587H225.948L225.406 241.655L224.636 232.502H223.131L222.343 241.672L221.801 247.587ZM233.497 258V230H236.402L236.384 236.58L236.174 244.805H237.032L239.552 236.002L241.494 230H244.487L240.339 242.53L244.924 258H242.072L238.572 245.907L236.314 251.7V258H233.497ZM247.937 258V230H257.23V232.502H250.72V242.67H256.88V245.172H250.72V255.497H257.23V258H247.937ZM265.945 258.245C264.067 258.245 262.708 257.872 261.868 257.125C261.039 256.367 260.596 255.124 260.538 253.397C260.526 252.732 260.514 252.114 260.503 251.542C260.503 250.959 260.509 250.376 260.52 249.792C260.532 249.197 260.549 248.556 260.573 247.867H263.25C263.204 248.906 263.174 249.903 263.163 250.86C263.163 251.805 263.192 252.767 263.25 253.747C263.285 254.529 263.501 255.077 263.898 255.392C264.306 255.696 264.989 255.847 265.945 255.847C266.844 255.847 267.485 255.696 267.87 255.392C268.267 255.077 268.489 254.529 268.535 253.747C268.582 253.246 268.605 252.703 268.605 252.12C268.617 251.525 268.611 250.936 268.588 250.352C268.576 249.769 268.559 249.221 268.535 248.707C268.512 247.774 268.325 247.074 267.975 246.607C267.625 246.141 267.054 245.808 266.26 245.61L264.318 245.137C263.361 244.904 262.609 244.566 262.06 244.122C261.512 243.667 261.121 243.061 260.888 242.302C260.654 241.544 260.52 240.582 260.485 239.415C260.474 238.657 260.468 237.869 260.468 237.052C260.479 236.224 260.491 235.39 260.503 234.55C260.538 233.395 260.742 232.467 261.115 231.767C261.489 231.067 262.066 230.56 262.848 230.245C263.641 229.918 264.674 229.755 265.945 229.755C267.765 229.755 269.084 230.128 269.9 230.875C270.717 231.622 271.154 232.858 271.213 234.585C271.236 235.308 271.242 236.107 271.23 236.982C271.219 237.846 271.201 238.756 271.178 239.712H268.483C268.518 238.639 268.535 237.665 268.535 236.79C268.547 235.915 268.535 235.063 268.5 234.235C268.465 233.453 268.255 232.911 267.87 232.607C267.485 232.292 266.832 232.135 265.91 232.135C264.989 232.135 264.329 232.292 263.933 232.607C263.548 232.911 263.332 233.453 263.285 234.235C263.239 235.122 263.215 235.979 263.215 236.807C263.215 237.636 263.239 238.505 263.285 239.415C263.309 240.418 263.449 241.159 263.705 241.637C263.962 242.104 264.405 242.413 265.035 242.565L266.873 242.985C267.969 243.242 268.833 243.597 269.463 244.052C270.104 244.507 270.565 245.114 270.845 245.872C271.137 246.631 271.3 247.576 271.335 248.707C271.359 249.197 271.37 249.717 271.37 250.265C271.37 250.802 271.364 251.338 271.353 251.875C271.341 252.412 271.329 252.919 271.318 253.397C271.248 255.124 270.799 256.367 269.97 257.125C269.154 257.872 267.812 258.245 265.945 258.245ZM285.794 258V232.502H281.524V230H292.812V232.502H288.559V258H285.794ZM295.889 258V230H298.671V242.67H303.834V230H306.616V258H303.834V245.172H298.671V258H295.889ZM311.559 258V230H314.342V258H311.559ZM324.201 258.245C322.323 258.245 320.964 257.872 320.124 257.125C319.295 256.367 318.852 255.124 318.794 253.397C318.782 252.732 318.77 252.114 318.759 251.542C318.759 250.959 318.764 250.376 318.776 249.792C318.788 249.197 318.805 248.556 318.829 247.867H321.506C321.459 248.906 321.43 249.903 321.419 250.86C321.419 251.805 321.448 252.767 321.506 253.747C321.541 254.529 321.757 255.077 322.154 255.392C322.562 255.696 323.244 255.847 324.201 255.847C325.099 255.847 325.741 255.696 326.126 255.392C326.523 255.077 326.744 254.529 326.791 253.747C326.838 253.246 326.861 252.703 326.861 252.12C326.873 251.525 326.867 250.936 326.844 250.352C326.832 249.769 326.814 249.221 326.791 248.707C326.768 247.774 326.581 247.074 326.231 246.607C325.881 246.141 325.309 245.808 324.516 245.61L322.574 245.137C321.617 244.904 320.864 244.566 320.316 244.122C319.768 243.667 319.377 243.061 319.144 242.302C318.91 241.544 318.776 240.582 318.741 239.415C318.729 238.657 318.724 237.869 318.724 237.052C318.735 236.224 318.747 235.39 318.759 234.55C318.794 233.395 318.998 232.467 319.371 231.767C319.744 231.067 320.322 230.56 321.104 230.245C321.897 229.918 322.929 229.755 324.201 229.755C326.021 229.755 327.339 230.128 328.156 230.875C328.973 231.622 329.41 232.858 329.469 234.585C329.492 235.308 329.498 236.107 329.486 236.982C329.474 237.846 329.457 238.756 329.434 239.712H326.739C326.774 238.639 326.791 237.665 326.791 236.79C326.803 235.915 326.791 235.063 326.756 234.235C326.721 233.453 326.511 232.911 326.126 232.607C325.741 232.292 325.088 232.135 324.166 232.135C323.244 232.135 322.585 232.292 322.189 232.607C321.804 232.911 321.588 233.453 321.541 234.235C321.494 235.122 321.471 235.979 321.471 236.807C321.471 237.636 321.494 238.505 321.541 239.415C321.564 240.418 321.704 241.159 321.961 241.637C322.218 242.104 322.661 242.413 323.291 242.565L325.129 242.985C326.225 243.242 327.089 243.597 327.719 244.052C328.36 244.507 328.821 245.114 329.101 245.872C329.393 246.631 329.556 247.576 329.591 248.707C329.614 249.197 329.626 249.717 329.626 250.265C329.626 250.802 329.62 251.338 329.609 251.875C329.597 252.412 329.585 252.919 329.574 253.397C329.504 255.124 329.054 256.367 328.226 257.125C327.409 257.872 326.068 258.245 324.201 258.245ZM120.184 297.245C118.306 297.245 116.946 296.872 116.106 296.125C115.278 295.367 114.835 294.124 114.776 292.397C114.765 291.732 114.753 291.114 114.741 290.542C114.741 289.959 114.747 289.376 114.759 288.792C114.771 288.197 114.788 287.556 114.811 286.867H117.489C117.442 287.906 117.413 288.903 117.401 289.86C117.401 290.805 117.431 291.767 117.489 292.747C117.524 293.529 117.74 294.077 118.136 294.392C118.545 294.696 119.227 294.847 120.184 294.847C121.082 294.847 121.724 294.696 122.109 294.392C122.506 294.077 122.727 293.529 122.774 292.747C122.821 292.246 122.844 291.703 122.844 291.12C122.856 290.525 122.85 289.936 122.826 289.352C122.815 288.769 122.797 288.221 122.774 287.707C122.751 286.774 122.564 286.074 122.214 285.607C121.864 285.141 121.292 284.808 120.499 284.61L118.556 284.137C117.6 283.904 116.847 283.566 116.299 283.122C115.751 282.667 115.36 282.061 115.126 281.302C114.893 280.544 114.759 279.582 114.724 278.415C114.712 277.657 114.706 276.869 114.706 276.052C114.718 275.224 114.73 274.39 114.741 273.55C114.776 272.395 114.981 271.467 115.354 270.767C115.727 270.067 116.305 269.56 117.086 269.245C117.88 268.918 118.912 268.755 120.184 268.755C122.004 268.755 123.322 269.128 124.139 269.875C124.956 270.622 125.393 271.858 125.451 273.585C125.475 274.308 125.481 275.107 125.469 275.982C125.457 276.846 125.44 277.756 125.416 278.712H122.721C122.756 277.639 122.774 276.665 122.774 275.79C122.786 274.915 122.774 274.063 122.739 273.235C122.704 272.453 122.494 271.911 122.109 271.607C121.724 271.292 121.071 271.135 120.149 271.135C119.227 271.135 118.568 271.292 118.171 271.607C117.786 271.911 117.571 272.453 117.524 273.235C117.477 274.122 117.454 274.979 117.454 275.807C117.454 276.636 117.477 277.505 117.524 278.415C117.547 279.418 117.687 280.159 117.944 280.637C118.201 281.104 118.644 281.413 119.274 281.565L121.111 281.985C122.208 282.242 123.071 282.597 123.701 283.052C124.343 283.507 124.804 284.114 125.084 284.872C125.376 285.631 125.539 286.576 125.574 287.707C125.597 288.197 125.609 288.717 125.609 289.265C125.609 289.802 125.603 290.338 125.591 290.875C125.58 291.412 125.568 291.919 125.556 292.397C125.486 294.124 125.037 295.367 124.209 296.125C123.392 296.872 122.051 297.245 120.184 297.245ZM129.997 297V269H139.289V271.502H132.779V281.67H138.939V284.172H132.779V294.497H139.289V297H129.997ZM148.005 297.245C146.127 297.245 144.767 296.872 143.927 296.125C143.099 295.367 142.656 294.124 142.597 292.397C142.586 291.732 142.574 291.114 142.562 290.542C142.562 289.959 142.568 289.376 142.58 288.792C142.592 288.197 142.609 287.556 142.632 286.867H145.31C145.263 287.906 145.234 288.903 145.222 289.86C145.222 290.805 145.252 291.767 145.31 292.747C145.345 293.529 145.561 294.077 145.957 294.392C146.366 294.696 147.048 294.847 148.005 294.847C148.903 294.847 149.545 294.696 149.93 294.392C150.327 294.077 150.548 293.529 150.595 292.747C150.642 292.246 150.665 291.703 150.665 291.12C150.677 290.525 150.671 289.936 150.647 289.352C150.636 288.769 150.618 288.221 150.595 287.707C150.572 286.774 150.385 286.074 150.035 285.607C149.685 285.141 149.113 284.808 148.32 284.61L146.377 284.137C145.421 283.904 144.668 283.566 144.12 283.122C143.572 282.667 143.181 282.061 142.947 281.302C142.714 280.544 142.58 279.582 142.545 278.415C142.533 277.657 142.527 276.869 142.527 276.052C142.539 275.224 142.551 274.39 142.562 273.55C142.597 272.395 142.802 271.467 143.175 270.767C143.548 270.067 144.126 269.56 144.907 269.245C145.701 268.918 146.733 268.755 148.005 268.755C149.825 268.755 151.143 269.128 151.96 269.875C152.777 270.622 153.214 271.858 153.272 273.585C153.296 274.308 153.302 275.107 153.29 275.982C153.278 276.846 153.261 277.756 153.237 278.712H150.542C150.577 277.639 150.595 276.665 150.595 275.79C150.607 274.915 150.595 274.063 150.56 273.235C150.525 272.453 150.315 271.911 149.93 271.607C149.545 271.292 148.892 271.135 147.97 271.135C147.048 271.135 146.389 271.292 145.992 271.607C145.607 271.911 145.392 272.453 145.345 273.235C145.298 274.122 145.275 274.979 145.275 275.807C145.275 276.636 145.298 277.505 145.345 278.415C145.368 279.418 145.508 280.159 145.765 280.637C146.022 281.104 146.465 281.413 147.095 281.565L148.932 281.985C150.029 282.242 150.892 282.597 151.522 283.052C152.164 283.507 152.625 284.114 152.905 284.872C153.197 285.631 153.36 286.576 153.395 287.707C153.418 288.197 153.43 288.717 153.43 289.265C153.43 289.802 153.424 290.338 153.412 290.875C153.401 291.412 153.389 291.919 153.377 292.397C153.307 294.124 152.858 295.367 152.03 296.125C151.213 296.872 149.872 297.245 148.005 297.245ZM162.753 297.245C160.874 297.245 159.515 296.872 158.675 296.125C157.847 295.367 157.404 294.124 157.345 292.397C157.334 291.732 157.322 291.114 157.31 290.542C157.31 289.959 157.316 289.376 157.328 288.792C157.339 288.197 157.357 287.556 157.38 286.867H160.058C160.011 287.906 159.982 288.903 159.97 289.86C159.97 290.805 159.999 291.767 160.058 292.747C160.093 293.529 160.309 294.077 160.705 294.392C161.114 294.696 161.796 294.847 162.753 294.847C163.651 294.847 164.293 294.696 164.678 294.392C165.074 294.077 165.296 293.529 165.343 292.747C165.389 292.246 165.413 291.703 165.413 291.12C165.424 290.525 165.419 289.936 165.395 289.352C165.384 288.769 165.366 288.221 165.343 287.707C165.319 286.774 165.133 286.074 164.783 285.607C164.433 285.141 163.861 284.808 163.068 284.61L161.125 284.137C160.169 283.904 159.416 283.566 158.868 283.122C158.319 282.667 157.929 282.061 157.695 281.302C157.462 280.544 157.328 279.582 157.293 278.415C157.281 277.657 157.275 276.869 157.275 276.052C157.287 275.224 157.299 274.39 157.31 273.55C157.345 272.395 157.549 271.467 157.923 270.767C158.296 270.067 158.874 269.56 159.655 269.245C160.449 268.918 161.481 268.755 162.753 268.755C164.573 268.755 165.891 269.128 166.708 269.875C167.524 270.622 167.962 271.858 168.02 273.585C168.044 274.308 168.049 275.107 168.038 275.982C168.026 276.846 168.009 277.756 167.985 278.712H165.29C165.325 277.639 165.343 276.665 165.343 275.79C165.354 274.915 165.343 274.063 165.308 273.235C165.273 272.453 165.063 271.911 164.678 271.607C164.293 271.292 163.639 271.135 162.718 271.135C161.796 271.135 161.137 271.292 160.74 271.607C160.355 271.911 160.139 272.453 160.093 273.235C160.046 274.122 160.023 274.979 160.023 275.807C160.023 276.636 160.046 277.505 160.093 278.415C160.116 279.418 160.256 280.159 160.513 280.637C160.769 281.104 161.213 281.413 161.843 281.565L163.68 281.985C164.777 282.242 165.64 282.597 166.27 283.052C166.912 283.507 167.373 284.114 167.653 284.872C167.944 285.631 168.108 286.576 168.143 287.707C168.166 288.197 168.178 288.717 168.178 289.265C168.178 289.802 168.172 290.338 168.16 290.875C168.149 291.412 168.137 291.919 168.125 292.397C168.055 294.124 167.606 295.367 166.778 296.125C165.961 296.872 164.619 297.245 162.753 297.245ZM172.566 297V269H175.348V297H172.566ZM185.487 297.245C183.586 297.245 182.215 296.86 181.375 296.09C180.535 295.308 180.103 294.031 180.08 292.257C180.057 290.484 180.039 288.845 180.027 287.34C180.016 285.823 180.01 284.353 180.01 282.93C180.01 281.495 180.016 280.037 180.027 278.555C180.039 277.062 180.057 275.463 180.08 273.76C180.103 271.975 180.535 270.697 181.375 269.927C182.215 269.146 183.586 268.755 185.487 268.755C187.377 268.755 188.737 269.146 189.565 269.927C190.405 270.697 190.842 271.975 190.877 273.76C190.924 275.463 190.953 277.062 190.965 278.555C190.988 280.037 191 281.495 191 282.93C191 284.353 190.988 285.823 190.965 287.34C190.953 288.845 190.924 290.484 190.877 292.257C190.842 294.031 190.405 295.308 189.565 296.09C188.737 296.86 187.377 297.245 185.487 297.245ZM185.487 294.847C186.467 294.847 187.144 294.672 187.517 294.322C187.902 293.961 188.101 293.302 188.112 292.345C188.159 290.548 188.194 288.897 188.217 287.392C188.241 285.887 188.252 284.429 188.252 283.017C188.252 281.606 188.241 280.147 188.217 278.642C188.194 277.126 188.159 275.463 188.112 273.655C188.101 272.698 187.902 272.039 187.517 271.677C187.144 271.316 186.467 271.135 185.487 271.135C184.507 271.135 183.825 271.316 183.44 271.677C183.067 272.039 182.868 272.698 182.845 273.655C182.798 275.417 182.763 277.044 182.74 278.537C182.728 280.031 182.722 281.483 182.722 282.895C182.722 284.307 182.728 285.777 182.74 287.305C182.763 288.822 182.798 290.502 182.845 292.345C182.868 293.302 183.067 293.961 183.44 294.322C183.825 294.672 184.507 294.847 185.487 294.847ZM195.67 297V269H201.357L202.915 277.872L205.26 294.48H206.747L206.397 278.905L206.24 269H209.04V297H203.177L201.48 286.955L199.502 271.485H197.962L198.277 286.517L198.47 297H195.67ZM221.918 297V269H227.203C229.07 269 230.412 269.362 231.228 270.085C232.045 270.808 232.465 271.998 232.488 273.655C232.523 275.872 232.547 277.983 232.558 279.99C232.57 281.997 232.57 284.003 232.558 286.01C232.547 288.005 232.523 290.111 232.488 292.327C232.465 293.996 232.057 295.192 231.263 295.915C230.47 296.638 229.181 297 227.396 297H221.918ZM224.701 294.497H227.396C228.247 294.497 228.842 294.352 229.181 294.06C229.531 293.757 229.712 293.255 229.723 292.555C229.77 290.758 229.799 289.084 229.811 287.532C229.834 285.981 229.846 284.47 229.846 283C229.846 281.518 229.834 280.002 229.811 278.45C229.799 276.898 229.77 275.224 229.723 273.427C229.712 272.727 229.519 272.232 229.146 271.94C228.772 271.648 228.125 271.502 227.203 271.502H224.701V294.497ZM237.247 297V269H240.03V297H237.247ZM244.954 297V269H254.474V271.502H247.737V281.67H254.124V284.172H247.737V297H244.954ZM257.925 297V269H267.445V271.502H260.707V281.67H267.095V284.172H260.707V297H257.925ZM270.895 297V269H280.188V271.502H273.678V281.67H279.838V284.172H273.678V294.497H280.188V297H270.895ZM283.968 297V269H289.236C290.986 269 292.257 269.35 293.051 270.05C293.844 270.75 294.264 271.911 294.311 273.532C294.357 274.629 294.386 275.632 294.398 276.542C294.41 277.452 294.41 278.327 294.398 279.167C294.386 279.996 294.357 280.865 294.311 281.775C294.264 282.86 294.054 283.735 293.681 284.4C293.319 285.053 292.759 285.532 292.001 285.835L294.853 297H291.931L289.358 286.29H286.751V297H283.968ZM286.751 283.787H289.218C290.058 283.787 290.647 283.647 290.986 283.367C291.324 283.076 291.511 282.58 291.546 281.88C291.581 280.818 291.604 279.85 291.616 278.975C291.627 278.088 291.627 277.207 291.616 276.332C291.616 275.446 291.592 274.477 291.546 273.427C291.511 272.716 291.324 272.22 290.986 271.94C290.647 271.648 290.064 271.502 289.236 271.502H286.751V283.787ZM298.818 297V269H308.111V271.502H301.601V281.67H307.761V284.172H301.601V294.497H308.111V297H298.818ZM311.892 297V269H317.579L319.137 277.872L321.482 294.48H322.969L322.619 278.905L322.462 269H325.262V297H319.399L317.702 286.955L315.724 271.485H314.184L314.499 286.517L314.692 297H311.892ZM332.592 297V271.502H328.322V269H339.609V271.502H335.357V297H332.592Z" fill="white"/>
<path d="M377 264C377 293.667 368.203 322.668 351.72 347.336C335.238 372.003 311.811 391.229 284.403 402.582C256.994 413.935 226.834 416.906 197.736 411.118C168.639 405.33 141.912 391.044 120.934 370.066C99.9561 349.088 85.67 322.361 79.8822 293.264C74.0944 264.166 77.0649 234.006 88.4181 206.597C99.7712 179.189 118.997 155.762 143.664 139.28C168.332 122.797 197.333 114 227 114L227 134.806C201.448 134.806 176.469 142.383 155.223 156.579C133.978 170.775 117.418 190.952 107.64 214.559C97.8616 238.167 95.3031 264.143 100.288 289.205C105.273 314.266 117.578 337.286 135.646 355.354C153.714 373.422 176.734 385.727 201.795 390.712C226.857 395.697 252.833 393.138 276.441 383.36C300.048 373.582 320.225 357.022 334.421 335.777C348.617 314.531 356.194 289.552 356.194 264H377Z" fill="#610A73"/>
<path d="M227 414C246.698 414 266.204 410.12 284.403 402.582C302.601 395.044 319.137 383.995 333.066 370.066C346.995 356.137 358.044 339.601 365.582 321.403C373.12 303.204 377 283.698 377 264C377 244.302 373.12 224.796 365.582 206.597C358.044 188.399 346.995 171.863 333.066 157.934C319.137 144.005 302.601 132.956 284.403 125.418C266.204 117.88 246.698 114 227 114L227 134.806C243.966 134.806 260.766 138.147 276.441 144.64C292.115 151.133 306.357 160.649 318.354 172.646C330.351 184.643 339.867 198.885 346.36 214.559C352.853 230.234 356.194 247.034 356.194 264C356.194 280.966 352.853 297.766 346.36 313.441C339.867 329.115 330.351 343.357 318.354 355.354C306.357 367.351 292.115 376.867 276.441 383.36C260.766 389.853 243.966 393.194 227 393.194L227 414Z" fill="url(#paint0_linear_2369_253)"/>
<path d="M152 134.5L97.5 7H13" stroke="#A13DB5"/>
<path d="M306 392L327.5 515H447.5" stroke="url(#paint1_linear_2369_253)"/>
<circle cx="447.5" cy="514.5" r="6.5" fill="url(#paint2_linear_2369_253)"/>
<defs>
<linearGradient id="paint0_linear_2369_253" x1="227" y1="114" x2="227" y2="414" gradientUnits="userSpaceOnUse">
<stop stop-color="#996516"/>
<stop offset="0.25" stop-color="#FFCC00"/>
<stop offset="0.5" stop-color="#D4AF37"/>
<stop offset="1" stop-color="#B8860B"/>
</linearGradient>
<linearGradient id="paint1_linear_2369_253" x1="376.75" y1="392" x2="376.75" y2="515" gradientUnits="userSpaceOnUse">
<stop stop-color="#996516"/>
<stop offset="0.25" stop-color="#FFCC00"/>
<stop offset="0.5" stop-color="#D4AF37"/>
<stop offset="1" stop-color="#B8860B"/>
</linearGradient>
<linearGradient id="paint2_linear_2369_253" x1="447.5" y1="508" x2="447.5" y2="521" gradientUnits="userSpaceOnUse">
<stop stop-color="#996516"/>
<stop offset="0.25" stop-color="#FFCC00"/>
<stop offset="0.5" stop-color="#D4AF37"/>
<stop offset="1" stop-color="#B8860B"/>
</linearGradient>
</defs>
</svg>
