<svg width="32" height="32" viewBox="0 0 32 32" fill="none" xmlns="http://www.w3.org/2000/svg">
<path d="M22.079 6.31543C25.4338 9.67021 25.4338 15.11 22.079 18.4649C18.7229 21.821 13.283 21.821 9.92819 18.4649C6.57341 15.1101 6.57341 9.67025 9.92819 6.31543C13.283 2.95931 18.7228 2.95931 22.079 6.31543Z" fill="url(#paint0_linear_110_473)"/>
<path d="M23.5291 3.88906C23.6151 3.99251 23.7011 4.09865 23.7763 4.20882C24.0021 4.52589 24.123 4.9061 24.1203 5.29575C24.1122 5.48787 24.0652 5.67732 23.9832 5.85197C23.8973 6.03335 23.7804 6.1986 23.6393 6.34102C23.4915 6.48881 23.4472 6.71049 23.5278 6.90261C23.6071 7.09608 23.7951 7.22103 24.0034 7.22103C24.1404 7.22103 24.2708 7.16729 24.3688 7.07055C24.4696 6.96979 24.5623 6.86231 24.6469 6.74676C24.9613 6.33833 25.1414 5.84391 25.1629 5.32934C25.1776 4.72208 24.9963 4.12554 24.6469 3.6271C24.5569 3.49275 24.4548 3.36511 24.3514 3.23882C24.2197 3.08566 24.1055 2.91906 24.0074 2.74306C23.865 2.45018 23.8274 2.11699 23.904 1.80125C23.9886 1.44792 24.1539 1.11739 24.3849 0.837933C24.5448 0.614907 24.5018 0.305888 24.2869 0.135258C24.0732 -0.0353681 23.7629 -0.00984417 23.5802 0.194375C23.2483 0.593417 23.0132 1.06496 22.8923 1.57015C22.7606 2.11832 22.8211 2.69601 23.0642 3.20387C23.1932 3.4484 23.3491 3.67812 23.5291 3.88906Z" fill="url(#paint1_linear_110_473)"/>
<path d="M26.9508 3.88905C27.0368 3.9925 27.1228 4.09864 27.198 4.20881C27.4278 4.52454 27.5473 4.90609 27.542 5.29574C27.5164 5.68938 27.3404 6.05888 27.0502 6.32757C26.8514 6.5291 26.8514 6.85421 27.0502 7.05576C27.1483 7.15249 27.2786 7.20624 27.4157 7.20758C27.5527 7.20758 27.683 7.15384 27.7798 7.05576C28.2607 6.60165 28.5456 5.97692 28.5738 5.31589C28.5886 4.70863 28.4085 4.11209 28.0619 3.61365C27.9692 3.4793 27.8657 3.34898 27.7623 3.22538C27.6306 3.07221 27.5151 2.90696 27.4183 2.72962C27.2827 2.43538 27.2504 2.1022 27.3297 1.7878C27.4157 1.43849 27.5782 1.1147 27.808 0.837933C27.9853 0.614907 27.9477 0.289757 27.7247 0.112421C27.5016 -0.0649161 27.1765 -0.0286508 26.9991 0.194375C26.6686 0.5961 26.4335 1.06634 26.3113 1.57015C26.1769 2.11832 26.2374 2.69601 26.4792 3.20387C26.6122 3.44839 26.7708 3.67811 26.9508 3.88905Z" fill="url(#paint2_linear_110_473)"/>
<path d="M30.3767 3.88879C30.4627 3.99224 30.5487 4.09838 30.6239 4.20855C30.8496 4.52562 30.9706 4.90582 30.9679 5.29548C30.9423 5.68912 30.7663 6.05862 30.4761 6.3273C30.3283 6.47509 30.2854 6.69677 30.3646 6.88889C30.4439 7.08102 30.632 7.20731 30.8416 7.20731C30.9773 7.20731 31.1089 7.15222 31.2057 7.05549C31.684 6.5987 31.9674 5.97664 31.9997 5.31562C32.0051 4.71104 31.8197 4.11987 31.4703 3.6268C31.3803 3.49244 31.2782 3.36481 31.1748 3.23852C31.0431 3.08536 30.9289 2.91876 30.8308 2.74276C30.6938 2.44853 30.6629 2.11534 30.7448 1.80094C30.8308 1.44627 30.9988 1.11708 31.2325 0.837628C31.3669 0.617291 31.3172 0.332445 31.1156 0.169898C30.9155 0.00732986 30.6266 0.0180779 30.4385 0.194081C30.1066 0.593123 29.8702 1.06467 29.7506 1.56985C29.6176 2.11803 29.6781 2.69571 29.9226 3.20358C30.0489 3.4481 30.2007 3.67785 30.3767 3.88879Z" fill="url(#paint3_linear_110_473)"/>
<path d="M24.6537 17.9908L24.1888 17.6912C23.9631 17.5501 23.6662 17.6012 23.5009 17.8121C21.7597 20.2277 18.964 21.6601 15.9851 21.6601C13.0065 21.6601 10.2092 20.2279 8.46821 17.8121C8.30698 17.6186 8.03291 17.5689 7.81393 17.6912L7.34905 17.976H7.3504C2.77974 20.9358 0.0134138 26.0036 0 31.4489C0.00403066 31.7311 0.233774 31.9581 0.515914 31.9581H31.4707C31.7529 31.9581 31.9826 31.7311 31.9867 31.4489C31.9705 26.0129 29.2121 20.9518 24.6537 17.9908Z" fill="url(#paint4_linear_110_473)"/>
<defs>
<linearGradient id="paint0_linear_110_473" x1="16.0036" y1="3.79834" x2="16.0036" y2="20.9819" gradientUnits="userSpaceOnUse">
<stop stop-color="#996516"/>
<stop offset="0.25" stop-color="#FFCC00"/>
<stop offset="0.5" stop-color="#D4AF37"/>
<stop offset="1" stop-color="#B8860B"/>
</linearGradient>
<linearGradient id="paint1_linear_110_473" x1="23.994" y1="0.0224609" x2="23.994" y2="7.22103" gradientUnits="userSpaceOnUse">
<stop stop-color="#996516"/>
<stop offset="0.25" stop-color="#FFCC00"/>
<stop offset="0.5" stop-color="#D4AF37"/>
<stop offset="1" stop-color="#B8860B"/>
</linearGradient>
<linearGradient id="paint2_linear_110_473" x1="27.4079" y1="0" x2="27.4079" y2="7.20758" gradientUnits="userSpaceOnUse">
<stop stop-color="#996516"/>
<stop offset="0.25" stop-color="#FFCC00"/>
<stop offset="0.5" stop-color="#D4AF37"/>
<stop offset="1" stop-color="#B8860B"/>
</linearGradient>
<linearGradient id="paint3_linear_110_473" x1="30.8407" y1="0.0546875" x2="30.8407" y2="7.20731" gradientUnits="userSpaceOnUse">
<stop stop-color="#996516"/>
<stop offset="0.25" stop-color="#FFCC00"/>
<stop offset="0.5" stop-color="#D4AF37"/>
<stop offset="1" stop-color="#B8860B"/>
</linearGradient>
<linearGradient id="paint4_linear_110_473" x1="15.9933" y1="17.6118" x2="15.9933" y2="31.9581" gradientUnits="userSpaceOnUse">
<stop stop-color="#996516"/>
<stop offset="0.25" stop-color="#FFCC00"/>
<stop offset="0.5" stop-color="#D4AF37"/>
<stop offset="1" stop-color="#B8860B"/>
</linearGradient>
</defs>
</svg>
