<svg width="26" height="26" viewBox="0 0 26 26" fill="none" xmlns="http://www.w3.org/2000/svg">
<g clip-path="url(#clip0_110_104)">
<path d="M24.375 5.63064V8.93751H1.625V5.63064C1.63331 4.99196 1.8946 4.38266 2.35155 3.93637C2.8085 3.49008 3.4238 3.24325 4.0625 3.25001H5.6875V4.87501C5.6875 5.52148 5.94431 6.14147 6.40143 6.59859C6.85855 7.05571 7.47853 7.31251 8.125 7.31251C8.77147 7.31251 9.39145 7.05571 9.84857 6.59859C10.3057 6.14147 10.5625 5.52148 10.5625 4.87501V3.25001H15.4375V4.87501C15.4375 5.52148 15.6943 6.14147 16.1514 6.59859C16.6085 7.05571 17.2285 7.31251 17.875 7.31251C18.5215 7.31251 19.1415 7.05571 19.5986 6.59859C20.0557 6.14147 20.3125 5.52148 20.3125 4.87501V3.25001H21.9375C22.5762 3.24325 23.1915 3.49008 23.6485 3.93637C24.1054 4.38266 24.3667 4.99196 24.375 5.63064Z" fill="white"/>
<path d="M1.625 10.5625V23.6194C1.63331 24.2581 1.8946 24.8674 2.35155 25.3136C2.8085 25.7599 3.4238 26.0068 4.0625 26H21.9375C22.5762 26.0068 23.1915 25.7599 23.6485 25.3136C24.1054 24.8674 24.3667 24.2581 24.375 23.6194V10.5625H1.625ZM8.9375 21.9375C8.93688 22.1528 8.85108 22.3591 8.69884 22.5113C8.5466 22.6636 8.3403 22.7494 8.125 22.75H6.5C6.2847 22.7494 6.0784 22.6636 5.92616 22.5113C5.77392 22.3591 5.68812 22.1528 5.6875 21.9375V20.3125C5.68812 20.0972 5.77392 19.8909 5.92616 19.7387C6.0784 19.5864 6.2847 19.5006 6.5 19.5H8.125C8.3403 19.5006 8.5466 19.5864 8.69884 19.7387C8.85108 19.8909 8.93688 20.0972 8.9375 20.3125V21.9375ZM8.9375 16.25C8.93688 16.4653 8.85108 16.6716 8.69884 16.8238C8.5466 16.9761 8.3403 17.0619 8.125 17.0625H6.5C6.2847 17.0619 6.0784 16.9761 5.92616 16.8238C5.77392 16.6716 5.68812 16.4653 5.6875 16.25V14.625C5.68812 14.4097 5.77392 14.2034 5.92616 14.0512C6.0784 13.8989 6.2847 13.8131 6.5 13.8125H8.125C8.3403 13.8131 8.5466 13.8989 8.69884 14.0512C8.85108 14.2034 8.93688 14.4097 8.9375 14.625V16.25ZM14.625 21.9375C14.6244 22.1528 14.5386 22.3591 14.3863 22.5113C14.2341 22.6636 14.0278 22.7494 13.8125 22.75H12.1875C11.9722 22.7494 11.7659 22.6636 11.6137 22.5113C11.4614 22.3591 11.3756 22.1528 11.375 21.9375V20.3125C11.3756 20.0972 11.4614 19.8909 11.6137 19.7387C11.7659 19.5864 11.9722 19.5006 12.1875 19.5H13.8125C14.0278 19.5006 14.2341 19.5864 14.3863 19.7387C14.5386 19.8909 14.6244 20.0972 14.625 20.3125V21.9375ZM14.625 16.25C14.6244 16.4653 14.5386 16.6716 14.3863 16.8238C14.2341 16.9761 14.0278 17.0619 13.8125 17.0625H12.1875C11.9722 17.0619 11.7659 16.9761 11.6137 16.8238C11.4614 16.6716 11.3756 16.4653 11.375 16.25V14.625C11.3756 14.4097 11.4614 14.2034 11.6137 14.0512C11.7659 13.8989 11.9722 13.8131 12.1875 13.8125H13.8125C14.0278 13.8131 14.2341 13.8989 14.3863 14.0512C14.5386 14.2034 14.6244 14.4097 14.625 14.625V16.25ZM20.3125 16.25C20.3119 16.4653 20.2261 16.6716 20.0738 16.8238C19.9216 16.9761 19.7153 17.0619 19.5 17.0625H17.875C17.6597 17.0619 17.4534 16.9761 17.3012 16.8238C17.1489 16.6716 17.0631 16.4653 17.0625 16.25V14.625C17.0631 14.4097 17.1489 14.2034 17.3012 14.0512C17.4534 13.8989 17.6597 13.8131 17.875 13.8125H19.5C19.7153 13.8131 19.9216 13.8989 20.0738 14.0512C20.2261 14.2034 20.3119 14.4097 20.3125 14.625V16.25Z" fill="white"/>
<path d="M8.9375 3.25V4.875C8.9375 5.09049 8.8519 5.29715 8.69952 5.44952C8.54715 5.6019 8.34049 5.6875 8.125 5.6875C7.90951 5.6875 7.70285 5.6019 7.55048 5.44952C7.3981 5.29715 7.3125 5.09049 7.3125 4.875V3.25C7.3125 3.03451 7.3981 2.82785 7.55048 2.67548C7.70285 2.5231 7.90951 2.4375 8.125 2.4375C8.34049 2.4375 8.54715 2.5231 8.69952 2.67548C8.8519 2.82785 8.9375 3.03451 8.9375 3.25Z" fill="white"/>
<path d="M18.6875 3.25V4.875C18.6875 5.09049 18.6019 5.29715 18.4495 5.44952C18.2972 5.6019 18.0905 5.6875 17.875 5.6875C17.6595 5.6875 17.4528 5.6019 17.3005 5.44952C17.1481 5.29715 17.0625 5.09049 17.0625 4.875V3.25C17.0625 3.03451 17.1481 2.82785 17.3005 2.67548C17.4528 2.5231 17.6595 2.4375 17.875 2.4375C18.0905 2.4375 18.2972 2.5231 18.4495 2.67548C18.6019 2.82785 18.6875 3.03451 18.6875 3.25Z" fill="white"/>
</g>
<defs>
<clipPath id="clip0_110_104">
<rect width="26" height="26" fill="white"/>
</clipPath>
</defs>
</svg>
