<svg width="32" height="44" viewBox="0 0 32 44" fill="none" xmlns="http://www.w3.org/2000/svg">
<path d="M16.159 14.5098C15.2493 14.5098 14.5215 13.7821 14.5215 12.8723C14.5215 11.9626 15.2493 11.2349 16.159 11.2349C17.0687 11.2349 17.7964 11.9626 17.7964 12.8723C17.7964 13.7821 17.0687 14.5098 16.159 14.5098Z" fill="url(#paint0_linear_110_492)"/>
<path d="M15.6591 10.1433C15.4317 10.1433 15.2043 10.0523 15.0678 9.87037C14.9314 9.68843 14.8404 9.461 14.8404 9.23357C14.9768 7.32318 15.7501 6.64089 16.6598 6.0041C17.0237 5.77667 17.3421 5.54924 17.6605 5.09438C17.9789 4.68501 18.0244 4.0937 17.7515 3.59336C17.5695 3.27496 17.1147 2.68365 16.023 2.68365C14.613 2.68365 14.1581 3.54787 14.0217 4.27564C13.9307 4.68501 13.6123 4.95793 13.2029 4.95793H12.1567C11.9293 4.95793 11.7019 4.86696 11.5199 4.68501C11.3835 4.50307 11.2925 4.27564 11.338 4.04822C11.6109 2.18331 13.021 0 16.023 0C17.8424 0 19.389 0.909712 20.1622 2.41074C20.89 3.82079 20.7535 5.45827 19.8438 6.73186C19.2525 7.5506 18.6612 7.95998 18.2518 8.23289C17.797 8.55129 17.615 8.68774 17.5695 9.37003C17.524 9.7794 17.1602 10.1433 16.7508 10.1433H15.6591Z" fill="url(#paint1_linear_110_492)"/>
<path d="M4.33296 12.5539C4.10553 12.5539 3.87811 12.463 3.74165 12.281C3.60519 12.0991 3.51422 11.8716 3.51422 11.6442C3.65068 9.73382 4.42393 9.05154 5.33364 8.41474C5.69753 8.18731 6.01593 7.95988 6.33433 7.50503C6.65273 7.09566 6.69821 6.50435 6.4253 6.004C6.24336 5.68561 5.7885 5.09429 4.69685 5.09429C3.28679 5.09429 2.83194 5.95852 2.69548 6.68629C2.60451 7.09566 2.28611 7.36857 1.87674 7.36857H0.830573C0.603145 7.36857 0.375717 7.2776 0.193775 7.09566C0.0573179 6.91372 -0.0336534 6.68629 0.0118321 6.45886C0.284746 4.59395 1.6948 2.41064 4.69685 2.41064C6.51627 2.41064 8.06278 3.32036 8.83603 4.82138C9.5638 6.23143 9.42734 7.86891 8.51763 9.14251C7.92632 9.91576 7.33501 10.3706 6.92564 10.6435C6.47078 10.9619 6.28884 11.0984 6.24336 11.7807C6.19787 12.19 5.83398 12.5539 5.42461 12.5539H4.33296Z" fill="url(#paint2_linear_110_492)"/>
<path d="M4.83279 16.8751C3.92308 16.8751 3.19531 16.1473 3.19531 15.2376C3.19531 14.3279 3.92308 13.6001 4.83279 13.6001C5.7425 13.6001 6.47027 14.3279 6.47027 15.2376C6.42479 16.1473 5.7425 16.8751 4.83279 16.8751Z" fill="url(#paint3_linear_110_492)"/>
<path d="M27.531 16.8751C26.6213 16.8751 25.8936 16.1473 25.8936 15.2376C25.8936 14.3279 26.6213 13.6001 27.531 13.6001C28.4407 13.6001 29.1685 14.3279 29.1685 15.2376C29.123 16.1473 28.3953 16.8751 27.531 16.8751Z" fill="url(#paint4_linear_110_492)"/>
<path d="M27.0302 12.5539C26.8028 12.5539 26.5754 12.463 26.4389 12.281C26.3025 12.0991 26.2115 11.8716 26.2115 11.6442C26.3479 9.73382 27.1212 9.05154 28.0309 8.41474C28.3948 8.14183 28.7132 7.95988 29.0316 7.50503C29.35 7.09566 29.3955 6.50435 29.1226 6.004C28.9406 5.68561 28.4858 5.09429 27.3941 5.09429C25.9841 5.09429 25.5292 5.95852 25.3927 6.68629C25.3018 7.09566 24.9834 7.36857 24.574 7.36857H23.5278C23.3004 7.36857 23.073 7.2776 22.891 7.09566C22.7546 6.91372 22.6636 6.68629 22.7091 6.45886C22.982 4.59395 24.3921 2.41064 27.3941 2.41064C29.2135 2.41064 30.76 3.32036 31.5333 4.82138C32.2611 6.23143 32.1246 7.86891 31.2149 9.14251C30.6236 9.91576 30.0323 10.3706 29.6229 10.6435C29.168 10.9619 28.9861 11.0984 28.9406 11.7807C28.8951 12.19 28.5312 12.5539 28.1219 12.5539H27.0302Z" fill="url(#paint5_linear_110_492)"/>
<path d="M15.9775 28.4287C19.0706 28.4287 21.5723 25.927 21.5723 22.834C21.5723 19.741 19.0706 17.2393 15.9775 17.2393C12.8845 17.2393 10.3828 19.741 10.3828 22.834C10.3828 25.927 12.8845 28.4287 15.9775 28.4287Z" fill="url(#paint6_linear_110_492)"/>
<path d="M28.1669 21.6513C27.8485 20.4687 26.6659 19.7409 25.4378 20.0593C24.2551 20.3777 23.5274 21.5603 23.8458 22.7884L25.0739 27.4279L20.025 29.9297C19.2063 30.339 18.2965 30.5665 17.3868 30.5665H14.5667C13.657 30.5665 12.7473 30.339 11.9286 29.9297L6.87966 27.4279L8.10777 22.7884C8.42617 21.6058 7.6984 20.3777 6.51578 20.0593C5.33315 19.7409 4.10504 20.4687 3.78664 21.6513L2.10367 28.0193C1.83076 29.0199 2.3311 30.1116 3.24081 30.5665L9.92719 33.8869C10.0637 33.9324 10.1546 33.9779 10.2911 34.0234V42.0288C10.2911 42.6656 10.7914 43.2114 11.4737 43.2114H20.4798C21.1166 43.2114 21.6625 42.7111 21.6625 42.0288V34.0688C21.7989 34.0234 21.8899 33.9779 22.0264 33.9324L28.6672 30.6119C29.6224 30.1571 30.0773 29.0654 29.8044 28.0647L28.1669 21.6513Z" fill="url(#paint7_linear_110_492)"/>
<defs>
<linearGradient id="paint0_linear_110_492" x1="16.159" y1="11.2349" x2="16.159" y2="14.5098" gradientUnits="userSpaceOnUse">
<stop stop-color="#996516"/>
<stop offset="0.25" stop-color="#FFCC00"/>
<stop offset="0.5" stop-color="#D4AF37"/>
<stop offset="1" stop-color="#B8860B"/>
</linearGradient>
<linearGradient id="paint1_linear_110_492" x1="15.9775" y1="0" x2="15.9775" y2="10.1433" gradientUnits="userSpaceOnUse">
<stop stop-color="#996516"/>
<stop offset="0.25" stop-color="#FFCC00"/>
<stop offset="0.5" stop-color="#D4AF37"/>
<stop offset="1" stop-color="#B8860B"/>
</linearGradient>
<linearGradient id="paint2_linear_110_492" x1="4.65135" y1="2.41064" x2="4.65135" y2="12.5539" gradientUnits="userSpaceOnUse">
<stop stop-color="#996516"/>
<stop offset="0.25" stop-color="#FFCC00"/>
<stop offset="0.5" stop-color="#D4AF37"/>
<stop offset="1" stop-color="#B8860B"/>
</linearGradient>
<linearGradient id="paint3_linear_110_492" x1="4.83279" y1="13.6001" x2="4.83279" y2="16.8751" gradientUnits="userSpaceOnUse">
<stop stop-color="#996516"/>
<stop offset="0.25" stop-color="#FFCC00"/>
<stop offset="0.5" stop-color="#D4AF37"/>
<stop offset="1" stop-color="#B8860B"/>
</linearGradient>
<linearGradient id="paint4_linear_110_492" x1="27.531" y1="13.6001" x2="27.531" y2="16.8751" gradientUnits="userSpaceOnUse">
<stop stop-color="#996516"/>
<stop offset="0.25" stop-color="#FFCC00"/>
<stop offset="0.5" stop-color="#D4AF37"/>
<stop offset="1" stop-color="#B8860B"/>
</linearGradient>
<linearGradient id="paint5_linear_110_492" x1="27.3486" y1="2.41064" x2="27.3486" y2="12.5539" gradientUnits="userSpaceOnUse">
<stop stop-color="#996516"/>
<stop offset="0.25" stop-color="#FFCC00"/>
<stop offset="0.5" stop-color="#D4AF37"/>
<stop offset="1" stop-color="#B8860B"/>
</linearGradient>
<linearGradient id="paint6_linear_110_492" x1="15.9775" y1="17.2393" x2="15.9775" y2="28.4287" gradientUnits="userSpaceOnUse">
<stop stop-color="#996516"/>
<stop offset="0.25" stop-color="#FFCC00"/>
<stop offset="0.5" stop-color="#D4AF37"/>
<stop offset="1" stop-color="#B8860B"/>
</linearGradient>
<linearGradient id="paint7_linear_110_492" x1="15.956" y1="19.9844" x2="15.956" y2="43.2114" gradientUnits="userSpaceOnUse">
<stop stop-color="#996516"/>
<stop offset="0.25" stop-color="#FFCC00"/>
<stop offset="0.5" stop-color="#D4AF37"/>
<stop offset="1" stop-color="#B8860B"/>
</linearGradient>
</defs>
</svg>
