<svg width="26" height="26" viewBox="0 0 26 26" fill="none" xmlns="http://www.w3.org/2000/svg">
<path d="M20.3125 7.68219V4.0625C20.3125 3.63152 20.1413 3.2182 19.8365 2.91345C19.5318 2.6087 19.1185 2.4375 18.6875 2.4375H7.3125C6.88152 2.4375 6.4682 2.6087 6.16345 2.91345C5.8587 3.2182 5.6875 3.63152 5.6875 4.0625V7.71875C5.68805 7.97093 5.74703 8.21954 5.8598 8.4451C5.97258 8.67065 6.13609 8.86701 6.3375 9.01875L11.6462 13L6.3375 16.9812C6.13609 17.133 5.97258 17.3293 5.8598 17.5549C5.74703 17.7805 5.68805 18.0291 5.6875 18.2812V21.9375C5.6875 22.3685 5.8587 22.7818 6.16345 23.0865C6.4682 23.3913 6.88152 23.5625 7.3125 23.5625H18.6875C19.1185 23.5625 19.5318 23.3913 19.8365 23.0865C20.1413 22.7818 20.3125 22.3685 20.3125 21.9375V18.3178C20.3119 18.0666 20.2534 17.8189 20.1416 17.594C20.0297 17.369 19.8675 17.1729 19.6676 17.0209L14.3477 13L19.6676 8.97914C19.8675 8.82707 20.0297 8.63095 20.1416 8.40602C20.2534 8.18109 20.3119 7.9334 20.3125 7.68219ZM18.6875 18.3178V21.9375H7.3125V18.2812L12.1875 14.625V17.0625C12.1875 17.278 12.2731 17.4847 12.4255 17.637C12.5778 17.7894 12.7845 17.875 13 17.875C13.2155 17.875 13.4222 17.7894 13.5745 17.637C13.7269 17.4847 13.8125 17.278 13.8125 17.0625V14.6331L18.6875 18.3178ZM18.6875 7.68219L18.1015 8.125H7.85383L7.3125 7.71875V4.0625H18.6875V7.68219Z" fill="white"/>
</svg>
