<svg width="32" height="31" viewBox="0 0 32 31" fill="none" xmlns="http://www.w3.org/2000/svg">
<path d="M21.1103 4.89547C21.1103 2.19565 23.3074 0 26.0058 0C28.5726 0 30.6829 1.98568 30.8844 4.50221L31.4053 4.04991C31.5551 3.91968 31.782 3.93508 31.9122 4.08492C32.0425 4.23475 32.0257 4.46161 31.8758 4.59185L30.778 5.54689C30.6435 5.66452 30.4419 5.66452 30.3061 5.54689L29.2082 4.59185C29.0584 4.46162 29.043 4.23477 29.1718 4.08492C29.302 3.93508 29.5289 3.91968 29.6787 4.04991L30.1605 4.46862C29.9448 2.36532 28.1636 0.718511 26.0042 0.718511C23.7006 0.718511 21.8271 2.59217 21.8271 4.89557C21.8271 7.19913 23.7008 9.07264 26.0042 9.07264C26.4775 9.07264 26.4775 9.79101 26.0042 9.79101C23.3072 9.79241 21.1103 7.59521 21.1103 4.89547ZM25.6473 2.35947V4.53558L23.6658 4.53418C23.1939 4.53418 23.1925 5.25255 23.6658 5.25255L26.0072 5.25395C26.206 5.25395 26.3671 5.09431 26.3671 4.89547V2.35947C26.3657 1.88617 25.6473 1.88617 25.6473 2.35947ZM14.4235 13.4797V10.9675H13.362C13.4083 11.2517 13.4391 11.4422 13.4391 11.7419C13.4391 12.4267 13.2878 12.8804 13.0176 13.4783L14.4235 13.4797ZM9.68611 15.0649C11.5206 15.0649 13.0091 13.5749 13.0091 11.7433C13.0091 9.91164 11.5192 8.4203 9.68751 8.4203C7.85587 8.4203 6.36594 9.91024 6.36594 11.7433C6.36453 13.5735 7.85307 15.0649 9.68611 15.0649ZM16.5575 21.5581H26.745V15.4932H16.5575V21.5581ZM3.74172 21.5581H16.1263V15.2774C16.1263 15.1584 16.2229 15.0618 16.3419 15.0618H17.9789L18.147 13.6278C18.1358 12.1575 16.9357 10.9658 15.4639 10.9658H14.8548V13.478H15.4191C15.5549 13.478 15.6572 13.6054 15.6292 13.7385L14.9108 17.1623C14.8772 17.3219 14.6839 17.3877 14.5607 17.2827C13.4993 16.3837 12.2068 15.797 10.8332 15.5855L10.6259 15.5533L11.4676 19.3719C11.4844 19.4461 11.4592 19.5245 11.4031 19.5763L9.83197 21.0299C9.74935 21.1069 9.62192 21.1069 9.5379 21.0299L7.96673 19.5763C7.91072 19.5245 7.88552 19.4461 7.90232 19.3719L8.74393 15.5533L8.53668 15.5855C7.16297 15.7969 5.87046 16.3837 4.80916 17.2827C4.68593 17.3877 4.49269 17.3219 4.45908 17.1623L3.74071 13.7385C3.71271 13.6054 3.81493 13.478 3.95216 13.478H4.51649V10.9658L3.90875 10.9672C2.43839 10.9672 1.23693 12.1575 1.22571 13.6292L1.94268 19.7346C2.0547 20.6896 2.71424 21.5578 3.74209 21.5578L3.74172 21.5581ZM1.69162 31.0034H30.2162V24.9666H1.69162V31.0034ZM0 24.5353H31.908V21.9895H0V24.5353ZM5.93328 11.7417C5.93328 11.4406 5.96409 11.2516 6.0103 10.9673H4.94886V13.4795H6.3534C6.08454 12.8801 5.93328 12.4265 5.93328 11.7417ZM8.35165 19.3441L9.68618 20.5792L11.0207 19.3441L10.1763 15.5115C9.77581 15.4905 9.59517 15.4905 9.19467 15.5115L8.35165 19.3441Z" fill="url(#paint0_linear_110_468)"/>
<defs>
<linearGradient id="paint0_linear_110_468" x1="16" y1="0" x2="16" y2="31.0034" gradientUnits="userSpaceOnUse">
<stop stop-color="#996516"/>
<stop offset="0.25" stop-color="#FFCC00"/>
<stop offset="0.5" stop-color="#D4AF37"/>
<stop offset="1" stop-color="#B8860B"/>
</linearGradient>
</defs>
</svg>
