<svg width="80" height="60" viewBox="0 0 80 60" fill="none" xmlns="http://www.w3.org/2000/svg">
<g clip-path="url(#clip0_110_772)">
<path d="M59.1288 42.3063C57.9235 47.4223 55.1547 51.352 53.1932 53.6184C52.0561 54.9372 51.9935 57.0445 53.0681 58.4296L53.3979 58.8537C54.2962 60.0068 55.7573 60.3381 56.9399 59.6158C80.4777 45.2155 80.182 25.686 79.9546 22.3726C79.966 22.0081 80.0001 21.6436 80.0001 21.2791C80.0001 9.52299 71.8301 0.00012207 61.7498 0.00012207C51.6695 0.00012207 43.4938 9.52299 43.4938 21.2725C43.4938 31.9816 50.2936 40.8219 59.1288 42.3063Z" fill="#610A73"/>
<path d="M15.635 42.3063C14.4297 47.4223 11.6609 51.352 9.69942 53.6184C8.56233 54.9372 8.49979 57.0445 9.57434 58.4296L9.9041 58.8537C10.8024 60.0068 12.2636 60.3381 13.4461 59.6158C36.9782 45.2155 36.6883 25.686 36.4552 22.3726C36.4722 22.0081 36.5006 21.6436 36.5006 21.2725C36.5006 9.52299 28.3306 0.00012207 18.2503 0.00012207C8.17004 0.00012207 4.19617e-05 9.52299 4.19617e-05 21.2725C4.19617e-05 31.9816 6.79984 40.8219 15.635 42.3063Z" fill="#610A73"/>
</g>
<defs>
<clipPath id="clip0_110_772">
<rect width="80" height="60" fill="white" transform="matrix(-1 0 0 -1 80 60)"/>
</clipPath>
</defs>
</svg>
