<svg width="32" height="33" viewBox="0 0 32 33" fill="none" xmlns="http://www.w3.org/2000/svg">
<path d="M26.2473 13.4155H18.2109C16.1244 13.4155 14.2018 14.5443 13.1848 16.3679L10.7437 20.746H4.97561C3.84329 20.746 2.79553 21.4931 2.55073 22.5984C2.35991 23.4589 2.64254 24.2726 3.1898 24.8216C3.62185 25.2537 4.21953 25.5201 4.87477 25.5201H11.8162C12.8009 25.5201 13.719 25.0269 14.2627 24.2059L16.9342 20.1699V32.2673H26.7725V18.5495C26.7725 18.1535 27.0894 17.8294 27.4926 17.8294C27.8887 17.8294 28.2127 18.1535 28.2127 18.5495V28.2132C28.2127 29.2591 29.0606 30.107 30.1066 30.107C31.1525 30.107 32.0004 29.2591 32.0004 28.2132V19.1689C32.0004 15.9897 29.4245 13.4155 26.2473 13.4155Z" fill="url(#paint0_linear_110_511)"/>
<path d="M27.6385 7.46037C27.6385 10.2975 25.3378 12.598 22.5009 12.598C19.664 12.598 17.3633 10.2973 17.3633 7.46037C17.3633 4.62141 19.664 2.32275 22.5009 2.32275C25.3378 2.32275 27.6385 4.62164 27.6385 7.46037Z" fill="url(#paint1_linear_110_511)"/>
<path d="M8.06492 14.9202L9.31789 11.0966H12.9183C13.912 11.0966 14.7185 10.2973 14.7185 9.30356V1.793C14.7185 0.799307 13.912 0 12.9183 0H1.80019C0.806496 0 0 0.799307 0 1.793V9.30356C0 10.2973 0.806496 11.0966 1.80019 11.0966H3.85966L8.06492 14.9202ZM7.78408 10.031C7.78408 10.4343 7.46725 10.7511 7.064 10.7511C6.66795 10.7511 6.34391 10.4343 6.34391 10.031V9.68538C6.34391 9.28933 6.66795 8.96529 7.064 8.96529C7.46725 8.96529 7.78408 9.28933 7.78408 9.68538V10.031ZM7.064 1.01577C8.48256 1.01577 9.63469 2.1751 9.63469 3.5937C9.63469 4.75303 8.84981 5.72516 7.78408 6.03481V7.48217C7.78408 7.88542 7.46005 8.20225 7.064 8.20225C6.66795 8.20225 6.34391 7.88542 6.34391 7.48217V5.42993C6.34391 5.03388 6.66075 4.70985 7.064 4.70985C7.68329 4.70985 8.19452 4.20576 8.19452 3.5937C8.19452 2.95284 7.69767 2.45594 7.064 2.45594C6.4447 2.45594 5.94066 2.96722 5.94066 3.5937C5.94066 3.98975 5.61663 4.31379 5.22058 4.31379C4.82453 4.31379 4.50049 3.98975 4.50049 3.5937C4.50049 2.17514 5.64544 1.01577 7.064 1.01577Z" fill="url(#paint2_linear_110_511)"/>
<defs>
<linearGradient id="paint0_linear_110_511" x1="17.2458" y1="13.4155" x2="17.2458" y2="32.2673" gradientUnits="userSpaceOnUse">
<stop stop-color="#996516"/>
<stop offset="0.25" stop-color="#FFCC00"/>
<stop offset="0.5" stop-color="#D4AF37"/>
<stop offset="1" stop-color="#B8860B"/>
</linearGradient>
<linearGradient id="paint1_linear_110_511" x1="22.5009" y1="2.32275" x2="22.5009" y2="12.598" gradientUnits="userSpaceOnUse">
<stop stop-color="#996516"/>
<stop offset="0.25" stop-color="#FFCC00"/>
<stop offset="0.5" stop-color="#D4AF37"/>
<stop offset="1" stop-color="#B8860B"/>
</linearGradient>
<linearGradient id="paint2_linear_110_511" x1="7.35926" y1="0" x2="7.35926" y2="14.9202" gradientUnits="userSpaceOnUse">
<stop stop-color="#996516"/>
<stop offset="0.25" stop-color="#FFCC00"/>
<stop offset="0.5" stop-color="#D4AF37"/>
<stop offset="1" stop-color="#B8860B"/>
</linearGradient>
</defs>
</svg>
