<svg width="26" height="26" viewBox="0 0 26 26" fill="none" xmlns="http://www.w3.org/2000/svg">
<g clip-path="url(#clip0_110_121)">
<path d="M19.5 7.3125V18.6875C19.5 19.1185 19.3288 19.5318 19.024 19.8365C18.7193 20.1413 18.306 20.3125 17.875 20.3125H3.25C2.81902 20.3125 2.4057 20.1413 2.10095 19.8365C1.7962 19.5318 1.625 19.1185 1.625 18.6875V7.3125C1.625 6.88152 1.7962 6.4682 2.10095 6.16345C2.4057 5.8587 2.81902 5.6875 3.25 5.6875H17.875C18.306 5.6875 18.7193 5.8587 19.024 6.16345C19.3288 6.4682 19.5 6.88152 19.5 7.3125ZM25.3906 7.33789C25.276 7.30984 25.1567 7.30638 25.0407 7.32774C24.9246 7.34909 24.8144 7.39478 24.7173 7.4618L21.3058 9.73578C21.2501 9.77291 21.2045 9.82321 21.173 9.88221C21.1414 9.94121 21.125 10.0071 21.125 10.074V15.926C21.125 15.9929 21.1414 16.0588 21.173 16.1178C21.2045 16.1768 21.2501 16.2271 21.3058 16.2642L24.7366 18.5514C24.865 18.6371 25.0151 18.6844 25.1695 18.6878C25.3238 18.6912 25.4759 18.6506 25.608 18.5707C25.7302 18.493 25.8304 18.3853 25.899 18.2578C25.9677 18.1303 26.0024 17.9873 26 17.8425V8.125C26.0001 7.9448 25.9403 7.76969 25.83 7.6272C25.7197 7.48471 25.5651 7.38294 25.3906 7.33789Z" fill="white"/>
</g>
<defs>
<clipPath id="clip0_110_121">
<rect width="26" height="26" fill="white"/>
</clipPath>
</defs>
</svg>
